<svg width="16" height="22" viewBox="0 0 16 22" fill="none" xmlns="http://www.w3.org/2000/svg">
<path id="Vector" d="M15.2857 3.55H15.3357V3.5V1V0.95H15.2857H1H0.95V1V3.5V3.55H1H5.54545C7.18907 3.55 8.57957 4.55208 9.12871 5.95H1H0.95V6V8.5V8.55H1H9.12901C8.86071 9.24063 8.38329 9.83905 7.75736 10.2671C7.11107 10.709 6.3384 10.9477 5.54531 10.95H1H0.95V11V14.0175V14.0388L0.965327 14.0535L8.21987 21.036L8.23439 21.05H8.25455H11.9273H12.0513L11.9619 20.964L4.25911 13.55H5.54545H5.54552C7.05262 13.5481 8.51313 13.0461 9.68077 12.1282C10.8376 11.2188 11.637 9.95633 11.9468 8.55H15.2857H15.3357V8.5V6V5.95H15.2857H11.9466C11.7502 5.08058 11.3624 4.2622 10.8097 3.55H15.2857Z" fill="#627EEA" stroke="#40404F" stroke-width="0.1"/>
</svg>
